HIERARCHY
ROOT Hips
{
	OFFSET 0.00000 0.00000 0.00000
	CHANNELS 6 Xposition Yposition Zposition Zrotation Yrotation Xrotation 
	JOINT LHipJoint
	{
		OFFSET 0 0 0
		CHANNELS 3 Zrotation Yrotation Xrotation
		JOINT LeftUpLeg
		{
			OFFSET 1.84395 -1.68683 0.74144
			CHANNELS 3 Zrotation Yrotation Xrotation
			JOINT LeftLeg
			{
				OFFSET 2.27037 -6.23779 0.00000
				CHANNELS 3 Zrotation Yrotation Xrotation
				JOINT LeftFoot
				{
					OFFSET 2.56918 -7.05877 0.00000
					CHANNELS 3 Zrotation Yrotation Xrotation
					JOINT LeftToeBase
					{
						OFFSET 0.22276 -0.61202 1.71784
						CHANNELS 3 Zrotation Yrotation Xrotation
						End Site
						{
							OFFSET 0.00000 -0.00000 0.91613
						}
					}
				}
			}
		}
	}
	JOINT RHipJoint
	{
		OFFSET 0 0 0
		CHANNELS 3 Zrotation Yrotation Xrotation
		JOINT RightUpLeg
		{
			OFFSET -1.76833 -1.68684 0.74144
			CHANNELS 3 Zrotation Yrotation Xrotation
			JOINT RightLeg
			{
				OFFSET -2.49360 -6.85110 0.00000
				CHANNELS 3 Zrotation Yrotation Xrotation
				JOINT RightFoot
				{
					OFFSET -2.55538 -7.02085 0.00000
					CHANNELS 3 Zrotation Yrotation Xrotation
					JOINT RightToeBase
					{
						OFFSET -0.21516 -0.59115 1.68050
						CHANNELS 3 Zrotation Yrotation Xrotation
						End Site
						{
							OFFSET -0.00000 -0.00000 0.89604
						}
					}
				}
			}
		}
	}
	JOINT LowerBack
	{
		OFFSET 0 0 0
		CHANNELS 3 Zrotation Yrotation Xrotation
		JOINT Spine
		{
			OFFSET 0.06382 1.72312 -0.19613
			CHANNELS 3 Zrotation Yrotation Xrotation
			JOINT Spine1
			{
				OFFSET -0.00055 1.73507 0.23859
				CHANNELS 3 Zrotation Yrotation Xrotation
				JOINT Neck
				{
					OFFSET 0 0 0
					CHANNELS 3 Zrotation Yrotation Xrotation
					JOINT Neck1
					{
						OFFSET 0.03638 1.65562 0.09633
						CHANNELS 3 Zrotation Yrotation Xrotation
						JOINT Head
						{
							OFFSET 0.06388 1.62807 -0.32386
							CHANNELS 3 Zrotation Yrotation Xrotation
							End Site
							{
								OFFSET 0.00995 1.67644 -0.12021
							}
						}
					}
				}
				JOINT LeftShoulder
				{
					OFFSET 0 0 0
					CHANNELS 3 Zrotation Yrotation Xrotation
					JOINT LeftArm
					{
						OFFSET 3.09648 1.42991 0.28122
						CHANNELS 3 Zrotation Yrotation Xrotation
						JOINT LeftForeArm
						{
							OFFSET 5.11878 -0.00000 -0.00000
							CHANNELS 3 Zrotation Yrotation Xrotation
							JOINT LeftHand
							{
								OFFSET 3.59971 -0.00000 0.00000
								CHANNELS 3 Zrotation Yrotation Xrotation
								JOINT LeftFingerBase
								{
									OFFSET 0 0 0
									CHANNELS 3 Zrotation Yrotation Xrotation
									JOINT LeftHandIndex1
									{
										OFFSET 0.62877 -0.00000 0.00000
										CHANNELS 3 Zrotation Yrotation Xrotation
										End Site
										{
											OFFSET 0.50693 -0.00000 0.00000
										}
									}
								}
								JOINT LThumb
								{
									OFFSET 0 0 0
									CHANNELS 3 Zrotation Yrotation Xrotation
									End Site
									{
										OFFSET 0.51467 -0.00000 0.51467
									}
								}
							}
						}
					}
				}
				JOINT RightShoulder
				{
					OFFSET 0 0 0
					CHANNELS 3 Zrotation Yrotation Xrotation
					JOINT RightArm
					{
						OFFSET -3.33565 1.14597 0.05047
						CHANNELS 3 Zrotation Yrotation Xrotation
						JOINT RightForeArm
						{
							OFFSET -5.49020 -0.00000 0.00000
							CHANNELS 3 Zrotation Yrotation Xrotation
							JOINT RightHand
							{
								OFFSET -3.20659 -0.00000 -0.00000
								CHANNELS 3 Zrotation Yrotation Xrotation
								JOINT RightFingerBase
								{
									OFFSET 0 0 0
									CHANNELS 3 Zrotation Yrotation Xrotation
									JOINT RightHandIndex1
									{
										OFFSET -0.69188 -0.00000 0.00000
										CHANNELS 3 Zrotation Yrotation Xrotation
										End Site
										{
											OFFSET -0.55781 -0.00000 0.00000
										}
									}
								}
								JOINT RThumb
								{
									OFFSET 0 0 0
									CHANNELS 3 Zrotation Yrotation Xrotation
									End Site
									{
										OFFSET -0.56633 -0.00000 0.56633
									}
								}
							}
						}
					}
				}
			}
		}
	}
}
MOTION
Frames: 10
Frame Time: .0083333
0.4613 17.6280 8.9419 -8.3338 -22.6395 17.0227 0.0000 0.0000 0.0000 -23.3796 -44.6259 26.1402 0.0743 -1.7586 -4.8390 12.4251 39.7409 -78.6031 4.1104 12.3059 36.8229 0.0000 0.0000 0.0000 21.7159 33.7216 -7.2495 -0.1071 -2.1103 5.8105 0.0255 -6.0039 -7.8177 -0.0805 1.8297 -5.0351 4.9807 -7.1131 9.1738 3.9973 -8.5380 -5.8234 3.2275 -4.2951 -11.5686 5.3851 4.8298 -18.9550 0.3967 4.9854 17.2597 -0.0971 2.7420 8.6415 0.0000 -0.0000 0.0000 -96.8773 -53.8880 12.7835 2.1221 -3.6698 -0.0680 -0.0000 0.0000 -3.7898 27.5356 18.2161 9.2565 -7.1250 0.0000 -0.0000 -0.5528 50.3407 -0.0728 0.0000 -0.0000 0.0000 94.7634 40.0604 98.1072 -34.0658 44.1334 -14.1588 0.0000 -0.0000 -44.1372 31.7806 -75.5253 -30.9592 7.1250 -0.0000 -0.0000 112.1193 65.5675 138.5668
0.4549 17.6315 8.9493 -8.3979 -22.9754 17.4129 0.0000 0.0000 0.0000 -23.5699 -45.2304 26.3931 0.0724 -1.7362 -4.7772 13.3527 39.3301 -79.9243 4.2382 12.4708 37.4184 0.0000 0.0000 0.0000 21.5477 33.9001 -7.6784 -0.1059 -2.0986 5.7783 0.0226 -5.7798 -7.5602 -0.0756 1.7739 -4.8813 4.9828 -7.2208 9.4271 4.0188 -8.6632 -5.7911 3.3097 -4.3495 -11.6815 5.7742 5.0677 -18.6574 -0.1515 5.3437 16.2696 -0.3156 2.8706 8.2886 0.0000 -0.0000 0.0000 -95.8693 -54.2649 10.6681 2.1951 -3.7955 -0.0727 -0.0000 0.0000 -3.8778 28.1803 18.0463 9.4234 -7.1250 0.0000 -0.0000 0.1234 50.2655 0.0160 0.0000 -0.0000 0.0000 96.4055 40.2079 98.7199 -33.1850 43.4718 -13.5492 0.0000 -0.0000 -43.5117 28.8253 -73.4504 -27.8131 7.1250 -0.0000 -0.0000 106.9285 66.1764 133.1723
0.4521 17.6337 8.9564 -8.4441 -23.2815 17.7902 0.0000 0.0000 0.0000 -23.5821 -45.6725 26.3750 0.0697 -1.7033 -4.6863 14.0239 38.8897 -80.8524 4.3696 12.6366 38.0231 0.0000 0.0000 0.0000 21.3436 34.0186 -8.1728 -0.1064 -2.1036 5.7921 0.0190 -5.5260 -7.2822 -0.0776 1.7970 -4.9449 5.0187 -7.3258 9.6575 4.0357 -8.7817 -5.7527 3.3647 -4.4037 -11.7797 5.8509 5.3209 -19.0577 -0.2043 5.6514 16.3896 -0.2938 3.0143 8.4114 0.0000 0.0000 0.0000 -94.9623 -54.5671 8.6395 2.3072 -3.9886 -0.0803 -0.0000 0.0000 -3.7756 28.6329 18.0745 9.6139 -7.1250 0.0000 -0.0000 0.5732 50.3755 0.0759 0.0000 0.0000 0.0000 98.1032 40.3060 99.2206 -32.2141 42.7172 -12.8858 0.0000 -0.0000 -42.6961 30.4002 -73.3521 -29.3407 7.1250 -0.0000 -0.0000 106.5138 65.9480 133.1061
0.4542 17.6342 8.9647 -8.3942 -23.5157 18.1107 0.0000 0.0000 0.0000 -23.6304 -46.0808 26.2590 0.0665 -1.6632 -4.5757 14.5251 38.5206 -81.5477 4.4799 12.7729 38.5244 0.0000 0.0000 0.0000 21.0302 33.9530 -8.7084 -0.1053 -2.0926 5.7616 0.0160 -5.2557 -6.9672 -0.0908 1.9435 -5.3495 5.0953 -7.4393 9.8596 4.0134 -8.9108 -5.7121 3.3548 -4.4677 -11.8722 6.0816 5.5403 -18.9818 -0.5229 5.9578 15.7879 -0.4062 3.1358 8.2210 -0.0000 0.0000 0.0000 -94.1564 -54.8294 6.7259 2.4500 -4.2345 -0.0906 -0.0000 0.0000 -3.6530 28.7914 18.1494 9.7140 -7.1250 0.0000 -0.0000 0.7204 50.4863 0.0974 -0.0000 0.0000 0.0000 99.7860 40.4182 99.7031 -31.2231 41.9190 -12.2186 0.0000 -0.0000 -41.8348 31.4297 -73.1284 -30.3196 7.1250 -0.0000 -0.0000 105.8374 65.8007 132.6883
0.4542 17.6359 8.9736 -8.3955 -23.8424 18.3952 0.0000 0.0000 0.0000 -23.9376 -46.5926 26.5508 0.0650 -1.6447 -4.5246 15.2887 38.1983 -82.6807 4.5984 12.9167 39.0575 0.0000 0.0000 0.0000 20.8328 33.9347 -9.1156 -0.1045 -2.0843 5.7387 0.0110 -4.9598 -6.6962 -0.0972 2.0108 -5.5355 5.1229 -7.4818 9.9885 3.9869 -8.9594 -5.5759 3.3252 -4.4924 -11.8033 6.1573 5.6808 -19.3516 -0.6245 6.1215 15.6094 -0.4234 3.2038 8.2350 0.0000 -0.0000 0.0000 -93.4134 -55.2879 4.9432 2.4872 -4.2985 -0.0934 -0.0000 0.0000 -3.5460 28.8243 18.3546 9.8312 -7.1250 0.0000 -0.0000 0.7197 50.7199 0.1014 0.0000 -0.0000 0.0000 101.4267 40.5937 100.1568 -30.2500 41.1067 -11.5736 0.0000 -0.0000 -40.7141 31.6400 -72.6702 -30.4639 7.1250 -0.0000 -0.0000 104.6037 65.7713 131.5848
0.4493 17.6394 8.9802 -8.4624 -24.2128 18.6925 0.0000 0.0000 0.0000 -24.1775 -47.0510 26.8831 0.0651 -1.6459 -4.5280 16.0772 37.8871 -83.8679 4.7173 13.0582 39.5868 0.0000 0.0000 0.0000 20.7315 34.1928 -9.4043 -0.1063 -2.1025 5.7891 0.0089 -4.8213 -6.5633 -0.0900 1.9352 -5.3266 5.0681 -7.4721 10.0864 4.0009 -8.9494 -5.4148 3.3612 -4.4828 -11.6665 6.4715 5.8561 -19.2133 -1.1172 6.3770 14.8085 -0.6173 3.2879 7.9773 0.0000 -0.0000 0.0000 -92.7906 -55.8521 3.2772 2.4367 -4.2116 -0.0896 -0.0000 0.0000 -3.6401 29.0040 18.3464 9.8986 -7.1250 0.0000 -0.0000 0.9029 50.7428 0.1278 0.0000 -0.0000 0.0000 102.9016 41.6531 102.5522 -29.1435 40.1479 -10.8531 0.0000 -0.0000 -41.6601 29.3767 -71.7739 -28.1331 7.1250 -0.0000 -0.0000 102.3869 66.1117 129.0151
0.4431 17.6432 8.9859 -8.4946 -24.5159 18.9978 0.0000 0.0000 0.0000 -24.2521 -47.4206 26.9723 0.0649 -1.6437 -4.5221 16.6699 37.6509 -84.7686 4.8059 13.1618 39.9771 0.0000 0.0000 0.0000 20.5745 34.5186 -9.7049 -0.1090 -2.1288 5.8618 0.0090 -4.7869 -6.5096 -0.0800 1.8241 -5.0198 4.9686 -7.4762 10.1679 4.0537 -8.9618 -5.2908 3.4688 -4.4796 -11.5483 6.5897 6.0351 -19.1755 -1.3555 6.6325 14.2756 -0.6894 3.3884 7.8141 -0.0000 0.0000 0.0000 -92.2862 -56.3161 1.6495 2.4403 -4.2179 -0.0899 -0.0000 0.0000 -3.7388 29.2182 17.9363 9.7728 -7.1250 0.0000 -0.0000 1.1844 50.3248 0.1555 -0.0000 0.0000 0.0000 104.2089 42.1817 103.6257 -28.4102 39.4911 -10.3835 0.0000 -0.0000 -41.8342 28.9655 -71.2574 -27.6622 7.1250 -0.0000 -0.0000 101.0371 66.1569 127.6474
0.4381 17.6464 8.9921 -8.4943 -24.7730 19.2397 0.0000 0.0000 0.0000 -24.4167 -47.7830 27.1233 0.0643 -1.6357 -4.5000 17.2097 37.4478 -85.5975 4.8790 13.2462 40.2972 0.0000 0.0000 0.0000 20.4181 34.6900 -9.9932 -0.1108 -2.1459 5.9091 0.0090 -4.6966 -6.3730 -0.0763 1.7824 -4.9046 4.8493 -7.4800 10.2917 4.1167 -8.9727 -5.1528 3.6023 -4.4734 -11.4345 6.7044 6.2146 -19.2651 -1.5605 6.8726 13.9007 -0.7465 3.4852 7.7247 0.0000 -0.0000 0.0000 -92.0179 -56.6297 0.2066 2.6047 -4.5006 -0.1024 -0.0000 0.0000 -3.4078 29.0080 17.9721 9.7088 -7.1250 0.0000 -0.0000 0.9671 50.3276 0.1270 0.0000 -0.0000 0.0000 105.3880 42.4481 103.8601 -27.9171 39.0398 -10.0714 0.0000 -0.0000 -41.4515 29.8564 -71.1134 -28.5068 7.1250 -0.0000 -0.0000 100.5801 65.9971 127.4216
0.4344 17.6479 8.9977 -8.5441 -24.9200 19.4759 0.0000 0.0000 0.0000 -24.4263 -48.0688 27.1722 0.0639 -1.6307 -4.4860 17.5475 37.2889 -86.1163 4.9336 13.3086 40.5350 0.0000 0.0000 0.0000 20.3385 34.8719 -10.2229 -0.1110 -2.1486 5.9165 0.0144 -4.7373 -6.2255 -0.0799 1.8237 -5.0188 4.8552 -7.4830 10.4686 4.1817 -8.9585 -5.0455 3.6802 -4.4622 -11.4085 6.6803 6.2701 -19.4847 -1.6673 6.9541 13.6308 -0.7653 3.5085 7.6774 -0.0000 0.0000 0.0000 -92.0758 -56.7810 -0.9053 2.8942 -4.9981 -0.1263 -0.0000 0.0000 -2.7353 28.5144 18.0977 9.5792 -7.1250 0.0000 -0.0000 0.4501 50.3805 0.0597 -0.0000 0.0000 0.0000 106.3982 42.6655 103.9843 -27.5031 38.6548 -9.8118 0.0000 -0.0000 -40.9696 30.6363 -70.8906 -29.2322 7.1250 -0.0000 -0.0000 99.9305 65.8467 126.9912
0.4316 17.6493 9.0039 -8.6048 -24.9388 19.7426 0.0000 0.0000 0.0000 -24.2549 -48.3272 27.0374 0.0634 -1.6246 -4.4692 17.6901 37.2990 -86.3440 4.9327 13.3076 40.5311 0.0000 0.0000 0.0000 20.2505 35.0856 -10.4431 -0.1105 -2.1435 5.9025 0.0224 -4.9062 -6.1779 -0.0837 1.8666 -5.1372 5.1258 -7.4586 10.1576 4.0904 -8.9247 -4.7509 3.3480 -4.4762 -10.9518 6.8819 6.3648 -19.4166 -1.7965 7.0479 13.0720 -0.8364 3.5480 7.4962 0.0000 0.0000 0.0000 -92.1676 -57.3354 -1.6358 3.0148 -5.2050 -0.1371 -0.0000 0.0000 -1.9594 28.0566 18.1280 9.4157 -7.1250 0.0000 -0.0000 -0.0148 50.3340 -0.0019 0.0000 0.0000 0.0000 107.4593 43.2131 104.0427 -27.0942 38.2689 -9.5574 0.0000 -0.0000 -40.5922 31.0519 -70.6228 -29.5961 7.1250 -0.0000 -0.0000 99.1960 65.7489 126.3994
